# https://github.com/mikedh/trimesh
v -0.72303904 0.98164091 -0.25132653
v -0.72303904 0.98164091 0.24649349
v -0.72303904 0.68579500 0.45330153
v -0.72303904 0.00000000 0.15846010
v -0.72303904 0.00000000 -0.15846010
v -0.72303904 0.39244970 -0.47516903
v -0.72303904 0.41229951 -0.47180615
v -0.72303904 0.43115735 -0.46555578
v -0.72303904 0.71494457 0.44911995
v -0.72303904 0.75223659 0.43837547
v -0.72303904 0.77838957 0.42663622
v -0.72303904 0.79452982 0.41697015
v -0.72303904 0.80951276 0.40604521
v -0.72303904 0.82321440 0.39394062
v -0.72303904 0.05933039 0.50000011
v -0.72303927 0.03378436 0.48618512
v -0.72303904 0.06217144 -0.49978827
v -0.72303904 0.03255948 -0.47547714
v -0.72303904 0.04938170 -0.49653473
v -0.35975388 -0.01757563 0.05932212
v -0.66103799 -0.01761924 0.09220829
v -0.66176455 -0.01756621 -0.08627272
v -0.37377442 0.01131470 0.44039144
v -0.39215677 -0.00106431 0.31980770
v -0.52075785 0.01465387 0.47162258
v -0.66175454 0.01451483 0.47152209
v -0.66122543 -0.00360025 0.29522938
v 0.17528751 0.00899189 -0.35948495
v -0.39215677 -0.00106431 -0.31980770
v -0.66176101 -0.00312773 -0.29967852
v -0.66176455 0.01451795 -0.47152444
v 0.17021948 0.00867478 0.35693575
v 0.19564190 0.01585553 0.42387954
v 0.17177079 -0.01136637 0.02864386
v 0.19467358 -0.01140019 -0.02453512
v -0.44999961 -0.01835906 -0.06737873
v 0.27696072 0.98164091 -0.25132653
v 0.27696072 0.98164091 0.24649349
v 0.27696072 0.69549318 0.45257795
v 0.27696072 0.72454399 0.44720082
v 0.27696072 0.75223659 0.43837547
v 0.27696072 0.77838957 0.42663622
v 0.27696072 0.79452982 0.41697015
v 0.27696072 0.80951276 0.40604521
v 0.27696072 0.82321440 0.39394062
v 0.27696043 0.00001884 0.15879087
v 0.27696072 0.06007480 0.49994480
v 0.27696072 0.04363652 0.49328630
v 0.27696072 0.03678570 0.48666619
v 0.27696072 0.03393378 0.48127854
v 0.27696072 0.00000000 -0.15846010
v 0.27696072 0.39919810 -0.47466470
v 0.19615865 0.01618751 -0.42655859
v 0.27696072 0.05932969 -0.49999992
v 0.27696072 0.04363652 -0.49328630
v -0.72301725 0.00956816 -0.46787192
v 0.27696072 0.03393378 -0.48127854
v 0.27696072 0.41878868 -0.47019514
v 0.27696072 0.43115735 -0.46555578
vn -0.88191606 0.41349512 -0.22637545
vn -0.89264143 0.42792652 0.14166919
vn -0.93817083 0.05109428 0.34238116
vn -0.96759620 -0.25223896 0.01153726
vn -0.97235959 -0.23344157 -0.00467596
vn -0.93706586 0.05747133 -0.34439021
vn -0.93358374 0.11606030 -0.33904485
vn -0.93608349 0.15644650 -0.31507489
vn -0.93459151 0.10069164 0.34117429
vn -0.93239318 0.16290363 0.32265364
vn -0.93090371 0.21297867 0.29674630
vn -0.92994638 0.24769942 0.27174385
vn -0.92797724 0.27641411 0.24990696
vn -0.92949551 0.28794244 0.23049347
vn -0.91765826 -0.10875114 0.38219957
vn -0.92272588 -0.30640834 0.23386080
vn -0.92808222 -0.04383547 -0.36978622
vn -0.99999999 -0.00012343 -0.00005596
vn -0.92180245 -0.20779293 -0.32726494
vn 0.04832958 -0.99857015 0.02284529
vn -0.56757208 -0.82317583 0.01560385
vn -0.57773815 -0.81610490 -0.01383554
vn 0.04555208 -0.99453007 0.09399438
vn 0.03806160 -0.99740540 0.06110473
vn 0.01261339 -0.91808950 0.39617240
vn -0.47965946 -0.82609974 0.29578038
vn -0.57619463 -0.81554533 0.05371739
vn 0.22937635 -0.97153586 -0.05919938
vn 0.04668567 -0.99731524 -0.05641604
vn -0.05112739 -0.99741466 -0.05049743
vn -0.00443026 -0.70686388 -0.70733573
vn 0.20949098 -0.97604263 0.05877349
vn 0.36642505 -0.92435737 0.10628333
vn 0.21145891 -0.97713160 0.02233752
vn 0.36813491 -0.92972579 -0.00930802
vn 0.03134749 -0.99924491 -0.02295510
vn 0.88191607 0.41349511 -0.22637544
vn 0.89264145 0.42792649 0.14166919
vn 0.93631616 0.06153075 0.34572534
vn 0.93446806 0.11619357 0.33655387
vn 0.93317109 0.16737249 0.31808516
vn 0.93090374 0.21297862 0.29674624
vn 0.92994641 0.24769937 0.27174380
vn 0.92797726 0.27641406 0.24990692
vn 0.92949554 0.28794240 0.23049343
vn 0.93154267 -0.36329973 0.01554230
vn 0.92219073 -0.07989572 0.37839256
vn 0.91959796 -0.25902451 0.29537417
vn 0.91869625 -0.34475180 0.19272620
vn 0.92134058 -0.37481724 0.10316774
vn 0.93257325 -0.36063311 -0.01583973
vn 0.93449425 0.07207419 -0.34860552
vn 0.36673928 -0.92392349 -0.10893892
vn 0.92143061 -0.08486157 -0.37916243
vn 0.91528376 -0.28575481 -0.28390109
vn -0.88985908 -0.42004830 -0.17807369
vn 0.91501147 -0.37863957 -0.13923393
vn 0.93348724 0.13688128 -0.33145903
vn 0.93725578 0.16240843 -0.30850464
f 16//16 1//1 8//8
f 8//8 7//7 16//16
f 7//7 8//8 58//58
f 39//39 3//3 47//47
f 39//39 51//51 57//57
f 39//39 49//49 50//50
f 50//50 51//51 39//39
f 2//2 1//1 16//16
f 19//19 17//17 54//54
f 16//16 17//17 19//19
f 54//54 17//17 6//6
f 16//16 7//7 6//6
f 6//6 17//17 16//16
f 59//59 37//37 39//39
f 39//39 58//58 59//59
f 59//59 58//58 8//8
f 9//9 3//3 39//39
f 16//16 3//3 9//9
f 9//9 10//10 16//16
f 16//16 10//10 11//11
f 48//48 49//49 39//39
f 39//39 47//47 48//48
f 15//15 3//3 16//16
f 15//15 47//47 3//3
f 16//16 48//48 15//15
f 15//15 48//48 47//47
f 55//55 54//54 39//39
f 39//39 57//57 55//55
f 55//55 57//57 56//56
f 55//55 19//19 54//54
f 56//56 57//57 53//53
f 53//53 57//57 51//51
f 51//51 50//50 46//46
f 39//39 37//37 38//38
f 56//56 5//5 18//18
f 18//18 19//19 56//56
f 18//18 5//5 16//16
f 16//16 19//19 18//18
f 7//7 58//58 52//52
f 52//52 6//6 7//7
f 54//54 6//6 52//52
f 39//39 54//54 52//52
f 52//52 58//58 39//39
f 12//12 13//13 16//16
f 16//16 11//11 12//12
f 40//40 9//9 39//39
f 39//39 41//41 40//40
f 10//10 9//9 40//40
f 40//40 41//41 10//10
f 42//42 41//41 39//39
f 56//56 19//19 31//31
f 31//31 55//55 56//56
f 19//19 55//55 31//31
f 16//16 5//5 4//4
f 25//25 50//50 49//49
f 25//25 48//48 16//16
f 49//49 48//48 25//25
f 51//51 46//46 35//35
f 20//20 36//36 35//35
f 29//29 36//36 30//30
f 29//29 30//30 56//56
f 21//21 36//36 20//20
f 27//27 4//4 21//21
f 16//16 13//13 14//14
f 14//14 2//2 16//16
f 39//39 44//44 43//43
f 43//43 42//42 39//39
f 26//26 25//25 16//16
f 16//16 4//4 26//26
f 26//26 4//4 27//27
f 20//20 35//35 34//34
f 34//34 35//35 46//46
f 34//34 32//32 20//20
f 46//46 32//32 34//34
f 20//20 32//32 24//24
f 24//24 21//21 20//20
f 27//27 21//21 24//24
f 50//50 25//25 33//33
f 33//33 46//46 50//50
f 33//33 32//32 46//46
f 28//28 35//35 36//36
f 36//36 29//29 28//28
f 28//28 53//53 51//51
f 51//51 35//35 28//28
f 56//56 53//53 28//28
f 28//28 29//29 56//56
f 30//30 36//36 22//22
f 36//36 21//21 22//22
f 56//56 30//30 22//22
f 22//22 5//5 56//56
f 22//22 4//4 5//5
f 22//22 21//21 4//4
f 45//45 44//44 39//39
f 39//39 38//38 45//45
f 23//23 24//24 32//32
f 32//32 33//33 23//23
f 23//23 33//33 25//25
f 25//25 26//26 23//23
f 23//23 26//26 27//27
f 27//27 24//24 23//23
f 59//59 8//8 1//1
f 1//1 37//37 59//59
f 38//38 37//37 1//1
f 1//1 2//2 38//38
f 10//10 41//41 42//42
f 42//42 11//11 10//10
f 13//13 12//12 43//43
f 43//43 44//44 13//13
f 11//11 42//42 43//43
f 43//43 12//12 11//11
f 13//13 44//44 45//45
f 45//45 14//14 13//13
f 45//45 38//38 2//2
f 2//2 14//14 45//45

