# https://github.com/mikedh/trimesh
v 0.00000000 -0.14117485 -0.75756834
v -0.58281661 -0.08679312 -0.80605271
v -0.56375836 -0.08261670 -0.80605271
v -0.60212035 -0.08823428 -0.80605271
v -0.66265374 -0.07019772 -0.80605271
v -0.75016215 0.02204019 -0.80605271
v -0.78074039 0.25680385 -0.80586745
v -0.31244682 0.43528142 -0.83838539
v 0.00000000 0.43528911 -0.83837562
v 0.00000000 0.25882055 -0.83837562
v -0.33474687 0.34705483 -0.83837562
v -0.31243041 0.25882055 -0.83837562
v -0.87478422 0.07268850 -0.08137799
v -0.87481293 -0.01477726 -0.09892035
v -0.87478004 0.13748371 -0.00046085
v -0.79892919 0.43528911 -0.75756834
v -0.79893063 0.74433995 -0.32836741
v -0.79893932 0.74316132 0.15222341
v -0.79893195 0.76468762 -0.28294432
v -0.87415797 -0.09696947 0.07209525
v -0.79892919 -0.14117485 -0.75756833
v 0.12437975 0.10887806 0.10825464
v 0.12274052 -0.07836307 -0.05805499
v 0.12274052 -0.10008708 0.03562844
v 0.12274052 -0.11039579 -0.02723206
v 0.12274052 -0.11688101 -0.00927264
v 0.12274052 -0.01339690 -0.07962548
v 0.12518706 0.08613374 -0.04128815
v -0.79893428 -0.23530292 -0.24235266
v -0.79987144 -0.23418130 0.01539933
v -0.79895155 -0.22780865 0.04207445
v 0.00000000 -0.23047529 0.02932800
v -0.79887714 -0.20222446 0.08392059
v 0.00000000 -0.19985064 0.08413049
v 0.00000000 -0.16614515 0.11412009
v -0.79890099 -0.17393077 0.10894323
v -0.79892919 -0.15743937 0.12009983
v -0.79865645 -0.12858060 0.13586747
v 0.00000000 -0.11183695 0.14149356
v -0.79815151 -0.09034266 0.14961605
v 0.00000000 -0.06080812 0.15588736
v -0.69906304 -0.06277869 0.15557928
v 0.00000000 -0.02458795 0.16072570
v -0.79893063 -0.02798103 0.16161441
v -0.00000115 -0.00413218 0.16161457
v -0.79893471 0.69144886 0.16161459
v 0.00000000 0.76469709 -0.26262369
v -0.00000098 0.76469502 0.13465313
v -0.00075632 0.72257100 0.16161414
v -0.00000069 0.75872747 -0.30461950
v -0.79897053 0.72288959 0.15976048
v -0.79892953 0.76469621 0.13033542
v 0.04489869 -0.00117902 0.15144587
v 0.00081546 -0.23529109 -0.24242247
v 0.00796779 -0.23527998 0.00137572
v 0.04463292 -0.18914029 0.06612751
v 0.04463292 -0.04569433 0.14715007
vn 0.50290807 -0.74432805 -0.43938506
vn 0.02473113 -0.51260721 -0.85826698
vn 0.05230982 -0.39903358 -0.91544300
vn -0.01771214 -0.63791196 -0.76990558
vn -0.11726873 -0.42155279 -0.89918924
vn -0.36019329 -0.17688936 -0.91595357
vn -0.62297963 0.12488035 -0.77220546
vn -0.03538319 0.69287860 -0.72018558
vn 0.54154405 0.58159320 -0.60702503
vn 0.66804127 -0.12992165 -0.73269450
vn -0.05285548 0.00461556 -0.99859151
vn -0.02331751 -0.09039998 -0.99563253
vn -0.99720007 0.06219911 -0.04151259
vn -0.99118432 -0.12070609 -0.05462303
vn -0.99237860 0.10929249 0.05691980
vn -0.62002646 0.62461448 -0.47478831
vn -0.55697363 0.80333016 -0.21081043
vn -0.56038713 0.66382912 0.49527483
vn -0.52264212 0.84784492 -0.08946622
vn -0.88885989 -0.37174138 0.26783660
vn -0.55651625 -0.73412783 -0.38903211
vn 0.89897721 0.03759621 0.43637886
vn 0.98803398 -0.13019378 -0.08269479
vn 0.85157135 -0.46848841 0.23525486
vn 0.94360610 -0.32457726 -0.06524662
vn 0.82685994 -0.56203504 0.02047561
vn 0.99522841 -0.02529174 -0.09423771
vn 0.99063482 0.13039974 -0.04047910
vn -0.40712416 -0.91214250 -0.04739164
vn -0.35185102 -0.93472257 0.04994574
vn -0.32038876 -0.92980246 0.18115860
vn 0.14356460 -0.97473470 0.17111827
vn -0.31115676 -0.88416133 0.34848274
vn 0.14805453 -0.91928162 0.36469325
vn 0.23173385 -0.78723823 0.57145025
vn -0.31928918 -0.80970519 0.49237376
vn -0.33254889 -0.74418498 0.57930989
vn -0.35313941 -0.63705696 0.68516493
vn 0.21643271 -0.64004173 0.73722688
vn -0.38866913 -0.45567574 0.80080954
vn 0.14477848 -0.40146880 0.90435723
vn -0.00046328 -0.38187456 0.92421405
vn 0.14033457 -0.18345602 0.97295945
vn -0.45202095 -0.15744396 0.87800254
vn 0.13563702 -0.04564819 0.98970644
vn -0.54944194 0.06368680 0.83310117
vn 0.50577912 0.86212913 -0.03034553
vn 0.46023571 0.85226366 0.24865586
vn 0.50111729 0.46711850 0.72847908
vn 0.50046792 0.85271391 -0.14970253
vn -0.60676135 0.33773178 0.71956786
vn -0.50102280 0.84704342 0.17746433
vn 0.45479319 -0.09865325 0.88511620
vn 0.28583672 -0.95681760 -0.05289088
vn 0.25162852 -0.96686122 0.04315626
vn 0.47872933 -0.82437951 0.30202096
vn 0.53136872 -0.41767476 0.73701769
f 20//20 15//15 14//14
f 13//13 16//16 14//14
f 14//14 15//15 13//13
f 13//13 15//15 16//16
f 7//7 16//16 8//8
f 44//44 45//45 46//46
f 46//46 20//20 44//44
f 46//46 45//45 49//49
f 28//28 50//50 47//47
f 9//9 50//50 28//28
f 8//8 16//16 17//17
f 17//17 9//9 8//8
f 50//50 9//9 17//17
f 16//16 15//15 17//17
f 8//8 12//12 11//11
f 11//11 7//7 8//8
f 6//6 12//12 5//5
f 6//6 11//11 12//12
f 7//7 11//11 6//6
f 48//48 49//49 22//22
f 28//28 47//47 22//22
f 22//22 47//47 48//48
f 35//35 39//39 38//38
f 38//38 39//39 40//40
f 40//40 20//20 38//38
f 40//40 44//44 20//20
f 45//45 44//44 43//43
f 10//10 12//12 8//8
f 8//8 9//9 10//10
f 1//1 3//3 10//10
f 19//19 47//47 50//50
f 50//50 17//17 19//19
f 19//19 17//17 15//15
f 5//5 12//12 4//4
f 12//12 10//10 4//4
f 21//21 6//6 5//5
f 5//5 4//4 21//21
f 21//21 4//4 1//1
f 21//21 20//20 14//14
f 21//21 29//29 20//20
f 7//7 6//6 21//21
f 1//1 54//54 21//21
f 54//54 29//29 21//21
f 14//14 16//16 21//21
f 16//16 7//7 21//21
f 33//33 31//31 34//34
f 34//34 35//35 33//33
f 20//20 31//31 33//33
f 20//20 29//29 30//30
f 30//30 31//31 20//20
f 53//53 49//49 45//45
f 53//53 22//22 49//49
f 45//45 43//43 53//53
f 28//28 22//22 24//24
f 44//44 40//40 42//42
f 27//27 10//10 9//9
f 28//28 23//23 27//27
f 27//27 9//9 28//28
f 27//27 23//23 1//1
f 1//1 10//10 27//27
f 48//48 47//47 52//52
f 47//47 19//19 52//52
f 52//52 19//19 15//15
f 2//2 10//10 3//3
f 2//2 4//4 10//10
f 2//2 3//3 1//1
f 1//1 4//4 2//2
f 36//36 33//33 35//35
f 20//20 33//33 36//36
f 55//55 29//29 54//54
f 55//55 30//30 29//29
f 57//57 53//53 43//43
f 39//39 35//35 57//57
f 22//22 53//53 57//57
f 57//57 24//24 22//22
f 39//39 57//57 41//41
f 41//41 57//57 43//43
f 41//41 40//40 39//39
f 41//41 42//42 40//40
f 41//41 43//43 44//44
f 44//44 42//42 41//41
f 18//18 49//49 48//48
f 48//48 52//52 18//18
f 18//18 52//52 15//15
f 37//37 35//35 38//38
f 37//37 36//36 35//35
f 38//38 20//20 37//37
f 20//20 36//36 37//37
f 26//26 55//55 54//54
f 26//26 54//54 1//1
f 28//28 24//24 26//26
f 56//56 35//35 34//34
f 56//56 26//26 24//24
f 55//55 26//26 56//56
f 56//56 57//57 35//35
f 24//24 57//57 56//56
f 31//31 30//30 32//32
f 30//30 55//55 32//32
f 34//34 31//31 32//32
f 32//32 56//56 34//34
f 55//55 56//56 32//32
f 46//46 49//49 51//51
f 49//49 18//18 51//51
f 51//51 20//20 46//46
f 15//15 20//20 51//51
f 51//51 18//18 15//15
f 25//25 23//23 28//28
f 28//28 26//26 25//25
f 1//1 23//23 25//25
f 25//25 26//26 1//1

